HIERARCHY
ROOT Hips
{
     OFFSET 1.88212 96.90440 -13.34250
     CHANNELS 6 Xposition Yposition Zposition Zrotation Xrotation Yrotation
     JOINT Spine
     {
          OFFSET 0.00000 11.89050 0.00000
          CHANNELS 3 Zrotation Xrotation Yrotation
          JOINT Spine1
          {
               OFFSET -0.00000 25.65740 0.12766
               CHANNELS 3 Zrotation Xrotation Yrotation
               JOINT HEad
               {
                    OFFSET 0.00000 8.73416 0.01134
                    CHANNELS 3 Zrotation Xrotation Yrotation
                    End Site
                    {
                         OFFSET -0.29000 12.77420 2.51395
                    }
               }
               JOINT LeftShoulder1
               {
                    OFFSET 8.99000 -0.36225 -0.22000
                    CHANNELS 3 Zrotation Xrotation Yrotation
                    JOINT LeftArm
                    {
                         OFFSET 10.28270 -0.00338 0.32212
                         CHANNELS 3 Zrotation Xrotation Yrotation
                         JOINT LeftForeArm
                         {
                              OFFSET 32.76690 0.09914 -1.42434
                              CHANNELS 3 Zrotation Xrotation Yrotation
                              JOINT LeftHand
                              {
                                   OFFSET 27.56430 0.08536 1.02216
                                   CHANNELS 3 Zrotation Xrotation Yrotation
                                   End Site
                                   {
                                        OFFSET 16.74430 -0.60000 1.50291
                                   }
                              }
                         }
                    }
               }
               JOINT RightShoulder
               {
                    OFFSET -8.99000 -0.36225 -0.22000
                    CHANNELS 3 Zrotation Xrotation Yrotation
                    JOINT RightArm
                    {
                         OFFSET -10.28270 -0.00338 0.32212
                         CHANNELS 3 Zrotation Xrotation Yrotation
                         JOINT RightForeArm
                         {
                              OFFSET -32.89710 0.09914 -1.42434
                              CHANNELS 3 Zrotation Xrotation Yrotation
                              JOINT RightHand
                              {
                                   OFFSET -27.49210 0.08536 1.02216
                                   CHANNELS 3 Zrotation Xrotation Yrotation
                                   End Site
                                   {
                                        OFFSET -16.63120 -0.60000 1.50291
                                   }
                              }
                         }
                    }
               }
          }
     }
     JOINT LeftUpLeg
     {
          OFFSET 8.94580 -8.66707 0.10165
          CHANNELS 3 Zrotation Xrotation Yrotation
          JOINT LeftLeg
          {
               OFFSET 0.00000 -44.42270 1.37270
               CHANNELS 3 Zrotation Xrotation Yrotation
               JOINT LeftFoot
               {
                    OFFSET -0.25355 -42.09240 -1.46059
                    CHANNELS 3 Zrotation Xrotation Yrotation
                    JOINT LeftToes
                    {
                         OFFSET -0.04000 -4.41509 8.49910
                         CHANNELS 3 Zrotation Xrotation Yrotation
                         End Site
                         {
                              OFFSET 0.08000 -0.04745 9.77979
                         }
                    }
               }
          }
     }
     JOINT RightUpLeg
     {
          OFFSET -8.94580 -8.66707 0.10165
          CHANNELS 3 Zrotation Xrotation Yrotation
          JOINT RightLeg
          {
               OFFSET 0.00000 -44.42270 1.37270
               CHANNELS 3 Zrotation Xrotation Yrotation
               JOINT RightFoot
               {
                    OFFSET 0.25355 -42.09240 -1.46059
                    CHANNELS 3 Zrotation Xrotation Yrotation
                    JOINT RightToes
                    {
                         OFFSET 0.04000 -4.41509 8.49910
                         CHANNELS 3 Zrotation Xrotation Yrotation
                         End Site
                         {
                              OFFSET -0.08000 -0.13745 9.77979
                         }
                    }
               }
          }
     }
}
MOTION
Frames: 6
Frame Time: 0.01667
-20.18752 91.87937 -123.79888 -6.63534 8.94191 -151.10460 -5.16540 22.91816 -9.20206 -0.01081 0.01306 -0.02890 -0.11769 2.73143 13.39586 -1.14555 9.04914 4.29681 -128.52777 -58.42798 -102.87049 -25.09719 56.67432 -90.81501 19.51549 3.50792 -9.53099 17.84944 9.41301 0.49240 81.85383 -2.33091 73.50254 7.25678 33.51437 106.70464 15.36515 6.26830 6.48085 16.34375 -10.89165 -29.48884 -31.41503 1.93838 81.77121 -8.99422 -0.02064 -0.00339 15.45698 -21.14921 -59.60772 -18.37761 -0.97310 -13.54879 27.51096 24.62203 -20.03949 -30.00013 -0.00274 -0.00296 9.02742 -43.15380 33.01049 
-20.21519 91.64847 -123.92297 -6.94445 8.90895 -149.85231 -4.46921 22.47613 -7.86726 -0.01080 0.01088 -0.02799 -1.12308 3.22983 12.01095 -1.30492 9.52493 1.38780 -126.66004 -57.72500 -101.92134 -24.53702 56.10918 -90.08265 19.70130 3.66471 -9.67798 17.68892 9.12657 -2.34503 82.08672 -1.80658 73.26286 7.20490 33.46132 107.03957 16.18950 8.65762 5.59490 16.36370 -10.55514 -27.84937 -31.46213 2.28165 77.18961 -9.83725 -0.01432 -0.00452 17.36023 -21.00061 -57.65423 -18.25017 -1.24661 -14.13773 26.81312 25.71502 -20.83220 -30.00054 -0.00256 -0.00246 9.23359 -44.50563 32.21491 
-20.26758 91.46021 -124.05146 -7.12904 8.95787 -148.84413 -3.85757 22.15262 -6.62167 -0.01020 0.01030 -0.02676 -1.84780 3.67816 10.77196 -1.42344 9.86502 -1.06243 -124.24747 -56.86795 -100.54725 -23.85354 55.20489 -89.39118 19.80045 4.07333 -9.80635 17.62105 8.83972 -4.70945 82.26961 -1.46679 72.94886 7.24738 33.42950 107.41478 15.97601 7.50132 5.63494 16.68911 -10.08685 -24.95856 -31.68081 3.02765 72.01531 -10.62346 -0.01011 -0.00450 19.24780 -20.82306 -56.03188 -18.25484 -1.56333 -13.26729 27.05122 26.43073 -22.94239 -30.00082 -0.00216 -0.00190 9.34666 -45.95059 31.32494 
-20.37061 91.30049 -124.18015 -7.22564 9.07100 -148.04556 -3.34357 21.93354 -5.47880 -0.00949 0.00960 -0.02505 -2.31978 4.05512 9.66052 -1.51596 10.08605 -3.06235 -121.42346 -55.84716 -98.84328 -23.03830 53.99934 -88.77667 19.87029 4.30283 -9.96915 17.64983 8.55260 -6.60512 82.38418 -1.33119 72.57397 7.34580 33.42712 107.81402 16.60326 9.03507 5.04541 16.97910 -9.61930 -22.13489 -31.80715 3.81287 67.42822 -11.42480 -0.00754 -0.00388 21.07258 -20.62181 -54.74844 -18.38355 -1.87798 -11.09142 28.20325 26.68844 -26.24513 -30.00093 -0.00167 -0.00141 9.35578 -47.45616 30.38358 
-20.52853 91.15645 -124.30423 -7.26644 9.23390 -147.42091 -2.94439 21.79811 -4.43669 -0.00860 0.00842 -0.02302 -2.56095 4.36016 8.65340 -1.82221 10.24536 -4.33632 -112.19263 -52.08491 -93.03858 -19.15668 49.15457 -88.76595 19.85185 4.66807 -10.06386 17.73318 8.28346 -8.05478 82.47095 -1.41237 72.18388 7.51855 33.41467 108.19298 16.51791 8.50416 5.04765 17.26151 -9.15729 -19.40895 -31.82878 4.64452 63.41129 -12.29252 -0.00581 -0.00302 22.81270 -20.44384 -53.79711 -18.50256 -2.14993 -8.85525 29.54243 26.88258 -29.47375 -30.00091 -0.00117 -0.00100 9.25885 -48.97808 29.44012 
-20.72969 91.01978 -124.42205 -7.27561 9.43310 -146.93790 -2.65795 21.73790 -3.50964 -0.00735 0.00924 -0.02144 -2.60846 4.57973 7.74759 -2.03616 10.33249 -5.35603 -106.19668 -49.32954 -89.46317 -16.85567 45.49268 -88.62508 19.77409 4.91426 -10.15241 17.87875 8.03828 -9.13843 82.51468 -1.64137 71.78267 7.73091 33.40291 108.56355 16.96149 9.47235 4.66058 17.54618 -8.70730 -16.80960 -31.74792 5.51577 59.94578 -13.24737 -0.00415 -0.00206 24.45315 -20.32830 -53.17558 -18.62011 -2.39534 -6.60061 31.00305 26.97457 -32.60257 -30.00086 -0.00075 -0.00066 9.06655 -50.47620 28.54300 
